<svg width="16" height="16" viewBox="0 0 16 16" fill="none" xmlns="http://www.w3.org/2000/svg">
<path fill-rule="evenodd" clip-rule="evenodd" d="M12.6667 3.33333V12.6667H3.33333V3.33333H12.6667V3.33333ZM12.6667 2H3.33333C2.6 2 2 2.6 2 3.33333V12.6667C2 13.4 2.6 14 3.33333 14H12.6667C13.4 14 14 13.4 14 12.6667V3.33333C14 2.6 13.4 2 12.6667 2Z" fill="white"/>
<path d="M12.6667 12.6667V12.9167H12.9167V12.6667H12.6667ZM3.33333 12.6667H3.08333V12.9167H3.33333V12.6667ZM3.33333 3.33333V3.08333H3.08333V3.33333H3.33333ZM12.4167 3.33333V12.6667H12.9167V3.33333H12.4167ZM12.6667 12.4167H3.33333V12.9167H12.6667V12.4167ZM3.58333 12.6667V3.33333H3.08333V12.6667H3.58333ZM3.33333 3.58333H12.6667V3.08333H3.33333V3.58333ZM12.6667 1.75H3.33333V2.25H12.6667V1.75ZM3.33333 1.75C2.46193 1.75 1.75 2.46193 1.75 3.33333H2.25C2.25 2.73807 2.73807 2.25 3.33333 2.25V1.75ZM1.75 3.33333V12.6667H2.25V3.33333H1.75ZM1.75 12.6667C1.75 13.5381 2.46193 14.25 3.33333 14.25V13.75C2.73807 13.75 2.25 13.2619 2.25 12.6667H1.75ZM3.33333 14.25H12.6667V13.75H3.33333V14.25ZM12.6667 14.25C13.5381 14.25 14.25 13.5381 14.25 12.6667H13.75C13.75 13.2619 13.2619 13.75 12.6667 13.75V14.25ZM14.25 12.6667V3.33333H13.75V12.6667H14.25ZM14.25 3.33333C14.25 2.46193 13.5381 1.75 12.6667 1.75V2.25C13.2619 2.25 13.75 2.73807 13.75 3.33333H14.25Z" fill="#295F9A"/>
<rect width="9.33333" height="9.33333" transform="translate(3.3335 3.3335)" fill="#295F9A"/>
<path fill-rule="evenodd" clip-rule="evenodd" d="M10.7223 8.38894H8.38894V10.7223H7.61117V8.38894H5.27783V7.61117H7.61117V5.27783H8.38894V7.61117H10.7223V8.38894Z" fill="white"/>
</svg>
