<svg width="261" height="98" viewBox="0 0 261 98" fill="none" xmlns="http://www.w3.org/2000/svg">
<g filter="url(#filter0_d_136_2193)">
<rect x="26" y="25" width="201" height="38" rx="9.89691" fill="#CFCFCF"/>
<path d="M112.033 43.5619C112.704 43.7048 113.243 44.0402 113.649 44.568C114.056 45.0849 114.26 45.6787 114.26 46.3495C114.26 47.3172 113.919 48.0869 113.237 48.6588C112.566 49.2196 111.626 49.5 110.416 49.5H105.023V37.9206H110.235C111.412 37.9206 112.33 38.19 112.99 38.7289C113.66 39.2677 113.996 39.999 113.996 40.9227C113.996 41.6045 113.814 42.1708 113.452 42.6216C113.1 43.0725 112.627 43.3859 112.033 43.5619ZM107.843 42.6052H109.691C110.153 42.6052 110.504 42.5062 110.746 42.3082C110.999 42.0993 111.126 41.7969 111.126 41.401C111.126 41.0052 110.999 40.7027 110.746 40.4938C110.504 40.2849 110.153 40.1804 109.691 40.1804H107.843V42.6052ZM109.922 47.2237C110.395 47.2237 110.757 47.1192 111.01 46.9103C111.274 46.6904 111.406 46.377 111.406 45.9701C111.406 45.5632 111.269 45.2443 110.994 45.0134C110.73 44.7825 110.362 44.667 109.889 44.667H107.843V47.2237H109.922ZM115.335 44.8814C115.335 43.9357 115.511 43.1055 115.863 42.3907C116.226 41.6759 116.715 41.1261 117.331 40.7412C117.947 40.3564 118.634 40.1639 119.393 40.1639C120.041 40.1639 120.608 40.2959 121.092 40.5598C121.586 40.8237 121.966 41.1701 122.23 41.599V40.2959H125.05V49.5H122.23V48.1969C121.955 48.6258 121.57 48.9722 121.075 49.2361C120.591 49.5 120.025 49.632 119.376 49.632C118.628 49.632 117.947 49.4395 117.331 49.0546C116.715 48.6588 116.226 48.1034 115.863 47.3887C115.511 46.6629 115.335 45.8271 115.335 44.8814ZM122.23 44.8979C122.23 44.1942 122.032 43.6388 121.636 43.232C121.251 42.8251 120.778 42.6216 120.217 42.6216C119.657 42.6216 119.178 42.8251 118.782 43.232C118.397 43.6278 118.205 44.1777 118.205 44.8814C118.205 45.5852 118.397 46.146 118.782 46.5639C119.178 46.9708 119.657 47.1742 120.217 47.1742C120.778 47.1742 121.251 46.9708 121.636 46.5639C122.032 46.157 122.23 45.6017 122.23 44.8979ZM132.221 47.1082V49.5H130.786C129.763 49.5 128.966 49.2526 128.394 48.7577C127.822 48.2519 127.536 47.4326 127.536 46.3V42.6381H126.415V40.2959H127.536V38.0526H130.357V40.2959H132.204V42.6381H130.357V46.333C130.357 46.6079 130.423 46.8058 130.555 46.9268C130.687 47.0478 130.907 47.1082 131.215 47.1082H132.221ZM133.231 44.8814C133.231 43.9357 133.407 43.1055 133.759 42.3907C134.122 41.6759 134.611 41.1261 135.227 40.7412C135.843 40.3564 136.53 40.1639 137.289 40.1639C137.938 40.1639 138.504 40.2959 138.988 40.5598C139.483 40.8237 139.862 41.1701 140.126 41.599V40.2959H142.947V49.5H140.126V48.1969C139.851 48.6258 139.466 48.9722 138.971 49.2361C138.488 49.5 137.921 49.632 137.272 49.632C136.525 49.632 135.843 49.4395 135.227 49.0546C134.611 48.6588 134.122 48.1034 133.759 47.3887C133.407 46.6629 133.231 45.8271 133.231 44.8814ZM140.126 44.8979C140.126 44.1942 139.928 43.6388 139.532 43.232C139.147 42.8251 138.674 42.6216 138.114 42.6216C137.553 42.6216 137.074 42.8251 136.679 43.232C136.294 43.6278 136.101 44.1777 136.101 44.8814C136.101 45.5852 136.294 46.146 136.679 46.5639C137.074 46.9708 137.553 47.1742 138.114 47.1742C138.674 47.1742 139.147 46.9708 139.532 46.5639C139.928 46.157 140.126 45.6017 140.126 44.8979ZM147.808 37.2938V49.5H144.987V37.2938H147.808Z" fill="black"/>
</g>
<defs>
<filter id="filter0_d_136_2193" x="0" y="0" width="261" height="98" filterUnits="userSpaceOnUse" color-interpolation-filters="sRGB">
<feFlood flood-opacity="0" result="BackgroundImageFix"/>
<feColorMatrix in="SourceAlpha" type="matrix" values="0 0 0 0 0 0 0 0 0 0 0 0 0 0 0 0 0 0 127 0" result="hardAlpha"/>
<feOffset dx="4" dy="5"/>
<feGaussianBlur stdDeviation="15"/>
<feColorMatrix type="matrix" values="0 0 0 0 0 0 0 0 0 0 0 0 0 0 0 0 0 0 0.15 0"/>
<feBlend mode="normal" in2="BackgroundImageFix" result="effect1_dropShadow_136_2193"/>
<feBlend mode="normal" in="SourceGraphic" in2="effect1_dropShadow_136_2193" result="shape"/>
</filter>
</defs>
</svg>
