<svg width="25" height="24" viewBox="0 0 25 24" fill="none" xmlns="http://www.w3.org/2000/svg">
    <path d="M3.6001 6H5.6001H21.6001" stroke="#A30D11" stroke-width="2" stroke-linecap="round" stroke-linejoin="round"/>
    <path d="M8.6001 6V4C8.6001 3.46957 8.81081 2.96086 9.18588 2.58579C9.56096 2.21071 10.0697 2 10.6001 2H14.6001C15.1305 2 15.6392 2.21071 16.0143 2.58579C16.3894 2.96086 16.6001 3.46957 16.6001 4V6M19.6001 6V20C19.6001 20.5304 19.3894 21.0391 19.0143 21.4142C18.6392 21.7893 18.1305 22 17.6001 22H7.6001C7.06966 22 6.56096 21.7893 6.18588 21.4142C5.81081 21.0391 5.6001 20.5304 5.6001 20V6H19.6001Z" stroke="#A30D11" stroke-width="2" stroke-linecap="round" stroke-linejoin="round"/>
    <path d="M10.6001 11V17" stroke="#A30D11" stroke-width="2" stroke-linecap="round" stroke-linejoin="round"/>
    <path d="M14.6001 11V17" stroke="#A30D11" stroke-width="2" stroke-linecap="round" stroke-linejoin="round"/>
</svg>