<svg width="25" height="24" viewBox="0 0 25 24" fill="none" xmlns="http://www.w3.org/2000/svg">
    <path d="M11.6001 4H4.6001C4.06966 4 3.56096 4.21071 3.18588 4.58579C2.81081 4.96086 2.6001 5.46957 2.6001 6V20C2.6001 20.5304 2.81081 21.0391 3.18588 21.4142C3.56096 21.7893 4.06966 22 4.6001 22H18.6001C19.1305 22 19.6392 21.7893 20.0143 21.4142C20.3894 21.0391 20.6001 20.5304 20.6001 20V13" stroke="#295F9A" stroke-width="2" stroke-linecap="round" stroke-linejoin="round"/>
    <path d="M19.1001 2.49998C19.4979 2.10216 20.0375 1.87866 20.6001 1.87866C21.1627 1.87866 21.7023 2.10216 22.1001 2.49998C22.4979 2.89781 22.7214 3.43737 22.7214 3.99998C22.7214 4.56259 22.4979 5.10216 22.1001 5.49998L12.6001 15L8.6001 16L9.6001 12L19.1001 2.49998Z" stroke="#295F9A" stroke-width="2" stroke-linecap="round" stroke-linejoin="round"/>
</svg>