<svg width="261" height="98" viewBox="0 0 261 98" fill="none" xmlns="http://www.w3.org/2000/svg">
<g filter="url(#filter0_d_136_2188)">
<rect x="26" y="25" width="201" height="38" rx="9.89691" fill="#E05050"/>
<path d="M110.052 37.9206V49.5H107.231V44.733H102.843V49.5H100.023V37.9206H102.843V42.4567H107.231V37.9206H110.052ZM111.527 44.8814C111.527 43.9357 111.703 43.1055 112.055 42.3907C112.418 41.6759 112.907 41.1261 113.523 40.7412C114.139 40.3564 114.826 40.1639 115.585 40.1639C116.233 40.1639 116.8 40.2959 117.284 40.5598C117.778 40.8237 118.158 41.1701 118.422 41.599V40.2959H121.242V49.5H118.422V48.1969C118.147 48.6258 117.762 48.9722 117.267 49.2361C116.783 49.5 116.217 49.632 115.568 49.632C114.82 49.632 114.139 49.4395 113.523 49.0546C112.907 48.6588 112.418 48.1034 112.055 47.3887C111.703 46.6629 111.527 45.8271 111.527 44.8814ZM118.422 44.8979C118.422 44.1942 118.224 43.6388 117.828 43.232C117.443 42.8251 116.97 42.6216 116.409 42.6216C115.849 42.6216 115.37 42.8251 114.974 43.232C114.589 43.6278 114.397 44.1777 114.397 44.8814C114.397 45.5852 114.589 46.146 114.974 46.5639C115.37 46.9708 115.849 47.1742 116.409 47.1742C116.97 47.1742 117.443 46.9708 117.828 46.5639C118.224 46.157 118.422 45.6017 118.422 44.8979ZM126.104 41.599C126.379 41.1701 126.758 40.8237 127.242 40.5598C127.726 40.2959 128.292 40.1639 128.941 40.1639C129.699 40.1639 130.387 40.3564 131.003 40.7412C131.618 41.1261 132.102 41.6759 132.454 42.3907C132.817 43.1055 132.998 43.9357 132.998 44.8814C132.998 45.8271 132.817 46.6629 132.454 47.3887C132.102 48.1034 131.618 48.6588 131.003 49.0546C130.387 49.4395 129.699 49.632 128.941 49.632C128.303 49.632 127.737 49.5 127.242 49.2361C126.758 48.9722 126.379 48.6313 126.104 48.2134V53.8876H123.283V40.2959H126.104V41.599ZM130.128 44.8814C130.128 44.1777 129.93 43.6278 129.535 43.232C129.15 42.8251 128.671 42.6216 128.099 42.6216C127.539 42.6216 127.06 42.8251 126.664 43.232C126.28 43.6388 126.087 44.1942 126.087 44.8979C126.087 45.6017 126.28 46.157 126.664 46.5639C127.06 46.9708 127.539 47.1742 128.099 47.1742C128.66 47.1742 129.139 46.9708 129.535 46.5639C129.93 46.146 130.128 45.5852 130.128 44.8814ZM143.567 40.2959V49.5H140.746V48.2464C140.46 48.6533 140.07 48.9832 139.575 49.2361C139.091 49.478 138.552 49.599 137.959 49.599C137.255 49.599 136.634 49.445 136.095 49.1371C135.556 48.8182 135.138 48.3619 134.841 47.768C134.544 47.1742 134.396 46.4759 134.396 45.6732V40.2959H137.2V45.2938C137.2 45.9096 137.359 46.388 137.678 46.7289C137.997 47.0698 138.426 47.2402 138.965 47.2402C139.515 47.2402 139.949 47.0698 140.268 46.7289C140.587 46.388 140.746 45.9096 140.746 45.2938V40.2959H143.567ZM149.337 49.632C148.534 49.632 147.82 49.4945 147.193 49.2196C146.566 48.9447 146.071 48.5708 145.708 48.0979C145.345 47.6141 145.142 47.0753 145.098 46.4814H147.886C147.919 46.8003 148.067 47.0588 148.331 47.2567C148.595 47.4546 148.919 47.5536 149.304 47.5536C149.656 47.5536 149.926 47.4876 150.112 47.3557C150.31 47.2127 150.409 47.0313 150.409 46.8113C150.409 46.5474 150.272 46.355 149.997 46.234C149.722 46.1021 149.277 45.9591 148.661 45.8052C148.001 45.6512 147.451 45.4918 147.011 45.3268C146.572 45.1509 146.192 44.8814 145.873 44.5186C145.554 44.1447 145.395 43.6443 145.395 43.0175C145.395 42.4897 145.538 42.0113 145.824 41.5825C146.121 41.1426 146.55 40.7962 147.11 40.5433C147.682 40.2904 148.359 40.1639 149.139 40.1639C150.294 40.1639 151.201 40.4498 151.861 41.0216C152.532 41.5935 152.917 42.3522 153.016 43.2979H150.409C150.365 42.979 150.222 42.7261 149.981 42.5392C149.75 42.3522 149.442 42.2588 149.057 42.2588C148.727 42.2588 148.474 42.3247 148.298 42.4567C148.122 42.5777 148.034 42.7481 148.034 42.968C148.034 43.232 148.172 43.4299 148.447 43.5619C148.732 43.6938 149.172 43.8258 149.766 43.9577C150.448 44.1337 151.003 44.3096 151.432 44.4856C151.861 44.6505 152.235 44.9254 152.554 45.3103C152.884 45.6842 153.054 46.19 153.065 46.8278C153.065 47.3667 152.911 47.8505 152.603 48.2794C152.306 48.6973 151.872 49.0271 151.3 49.2691C150.739 49.511 150.085 49.632 149.337 49.632Z" fill="white"/>
</g>
<defs>
<filter id="filter0_d_136_2188" x="0" y="0" width="261" height="98" filterUnits="userSpaceOnUse" color-interpolation-filters="sRGB">
<feFlood flood-opacity="0" result="BackgroundImageFix"/>
<feColorMatrix in="SourceAlpha" type="matrix" values="0 0 0 0 0 0 0 0 0 0 0 0 0 0 0 0 0 0 127 0" result="hardAlpha"/>
<feOffset dx="4" dy="5"/>
<feGaussianBlur stdDeviation="15"/>
<feColorMatrix type="matrix" values="0 0 0 0 0 0 0 0 0 0 0 0 0 0 0 0 0 0 0.15 0"/>
<feBlend mode="normal" in2="BackgroundImageFix" result="effect1_dropShadow_136_2188"/>
<feBlend mode="normal" in="SourceGraphic" in2="effect1_dropShadow_136_2188" result="shape"/>
</filter>
</defs>
</svg>
