<svg width="36" height="36" viewBox="0 0 36 36" fill="none" xmlns="http://www.w3.org/2000/svg">
<path d="M10 26C10 21.5818 13.5817 18 18 18C22.4182 18 26 21.5818 26 26" stroke="white" stroke-width="2.5" stroke-linecap="round"/>
<path d="M17.9997 18.0003C20.6507 18.0003 22.7997 15.8513 22.7997 13.2003C22.7997 10.5493 20.6507 8.40027 17.9997 8.40027C15.3487 8.40027 13.1997 10.5493 13.1997 13.2003C13.1997 15.8513 15.3487 18.0003 17.9997 18.0003Z" stroke="white" stroke-width="2.5" stroke-linecap="round" stroke-linejoin="round"/>
<path d="M18 34C26.8366 34 34 26.8366 34 18C34 9.16344 26.8366 2 18 2C9.16344 2 2 9.16344 2 18C2 26.8366 9.16344 34 18 34Z" stroke="white" stroke-width="2.5"/>
</svg>
