<svg width="262" height="99" viewBox="0 0 262 99" fill="none" xmlns="http://www.w3.org/2000/svg">
<g filter="url(#filter0_d_57_695)">
<rect x="26.2578" y="25.3506" width="201" height="38" rx="9.89691" fill="#295F9A"/>
<path d="M98.9702 49.966C98.1234 49.966 97.3647 49.8286 96.6939 49.5537C96.0231 49.2788 95.4843 48.8719 95.0774 48.3331C94.6815 47.7942 94.4726 47.1454 94.4506 46.3867H97.4527C97.4966 46.8155 97.6451 47.1454 97.898 47.3764C98.1509 47.5963 98.4808 47.7063 98.8877 47.7063C99.3056 47.7063 99.6355 47.6128 99.8774 47.4258C100.119 47.2279 100.24 46.9585 100.24 46.6176C100.24 46.3317 100.141 46.0953 99.9434 45.9083C99.7564 45.7214 99.52 45.5674 99.2341 45.4465C98.9592 45.3255 98.5633 45.188 98.0465 45.0341C97.2987 44.8032 96.6884 44.5722 96.2155 44.3413C95.7427 44.1104 95.3358 43.7695 94.9949 43.3186C94.654 42.8678 94.4836 42.2795 94.4836 41.5537C94.4836 40.476 94.874 39.6348 95.6547 39.03C96.4355 38.4142 97.4527 38.1063 98.7063 38.1063C99.9819 38.1063 101.01 38.4142 101.791 39.03C102.572 39.6348 102.989 40.4815 103.044 41.5702H99.9929C99.9709 41.1963 99.8334 40.9049 99.5805 40.6959C99.3276 40.476 99.0032 40.366 98.6073 40.366C98.2664 40.366 97.9915 40.4595 97.7826 40.6465C97.5736 40.8224 97.4692 41.0808 97.4692 41.4217C97.4692 41.7956 97.6451 42.087 97.997 42.2959C98.3489 42.5049 98.8987 42.7303 99.6465 42.9722C100.394 43.2252 100.999 43.4671 101.461 43.698C101.934 43.9289 102.341 44.2643 102.682 44.7042C103.022 45.1441 103.193 45.7104 103.193 46.4032C103.193 47.063 103.022 47.6623 102.682 48.2011C102.352 48.7399 101.868 49.1688 101.23 49.4877C100.592 49.8066 99.8389 49.966 98.9702 49.966ZM106.347 39.6898C105.852 39.6898 105.446 39.5468 105.127 39.2609C104.819 38.964 104.665 38.6011 104.665 38.1722C104.665 37.7324 104.819 37.3695 105.127 37.0836C105.446 36.7867 105.852 36.6382 106.347 36.6382C106.831 36.6382 107.227 36.7867 107.535 37.0836C107.854 37.3695 108.013 37.7324 108.013 38.1722C108.013 38.6011 107.854 38.964 107.535 39.2609C107.227 39.5468 106.831 39.6898 106.347 39.6898ZM107.749 40.6465V49.8506H104.929V40.6465H107.749ZM121.538 40.5475C122.681 40.5475 123.589 40.8939 124.259 41.5867C124.941 42.2795 125.282 43.2417 125.282 44.4733V49.8506H122.478V44.8526C122.478 44.2588 122.318 43.8025 122 43.4836C121.692 43.1537 121.263 42.9887 120.713 42.9887C120.163 42.9887 119.729 43.1537 119.41 43.4836C119.102 43.8025 118.948 44.2588 118.948 44.8526V49.8506H116.144V44.8526C116.144 44.2588 115.984 43.8025 115.666 43.4836C115.358 43.1537 114.929 42.9887 114.379 42.9887C113.829 42.9887 113.395 43.1537 113.076 43.4836C112.768 43.8025 112.614 44.2588 112.614 44.8526V49.8506H109.793V40.6465H112.614V41.8011C112.9 41.4162 113.274 41.1138 113.736 40.8939C114.198 40.663 114.72 40.5475 115.303 40.5475C115.995 40.5475 116.611 40.6959 117.15 40.9929C117.7 41.2898 118.129 41.7131 118.437 42.263C118.756 41.7571 119.19 41.3447 119.74 41.0258C120.29 40.7069 120.889 40.5475 121.538 40.5475ZM130.075 41.9496C130.35 41.5207 130.73 41.1743 131.213 40.9104C131.697 40.6465 132.264 40.5145 132.912 40.5145C133.671 40.5145 134.358 40.7069 134.974 41.0918C135.59 41.4767 136.074 42.0265 136.426 42.7413C136.789 43.4561 136.97 44.2863 136.97 45.232C136.97 46.1777 136.789 47.0135 136.426 47.7392C136.074 48.454 135.59 49.0093 134.974 49.4052C134.358 49.7901 133.671 49.9825 132.912 49.9825C132.275 49.9825 131.708 49.8506 131.213 49.5867C130.73 49.3228 130.35 48.9819 130.075 48.564V54.2382H127.255V40.6465H130.075V41.9496ZM134.1 45.232C134.1 44.5282 133.902 43.9784 133.506 43.5825C133.121 43.1757 132.643 42.9722 132.071 42.9722C131.51 42.9722 131.032 43.1757 130.636 43.5825C130.251 43.9894 130.059 44.5447 130.059 45.2485C130.059 45.9523 130.251 46.5076 130.636 46.9145C131.032 47.3214 131.51 47.5248 132.071 47.5248C132.632 47.5248 133.11 47.3214 133.506 46.9145C133.902 46.4966 134.1 45.9358 134.1 45.232ZM137.889 45.232C137.889 44.2863 138.065 43.4561 138.417 42.7413C138.78 42.0265 139.269 41.4767 139.885 41.0918C140.501 40.7069 141.188 40.5145 141.947 40.5145C142.596 40.5145 143.162 40.6465 143.646 40.9104C144.141 41.1743 144.52 41.5207 144.784 41.9496V40.6465H147.605V49.8506H144.784V48.5475C144.509 48.9764 144.124 49.3228 143.629 49.5867C143.145 49.8506 142.579 49.9825 141.93 49.9825C141.183 49.9825 140.501 49.7901 139.885 49.4052C139.269 49.0093 138.78 48.454 138.417 47.7392C138.065 47.0135 137.889 46.1777 137.889 45.232ZM144.784 45.2485C144.784 44.5447 144.586 43.9894 144.19 43.5825C143.805 43.1757 143.332 42.9722 142.772 42.9722C142.211 42.9722 141.732 43.1757 141.337 43.5825C140.952 43.9784 140.759 44.5282 140.759 45.232C140.759 45.9358 140.952 46.4966 141.337 46.9145C141.732 47.3214 142.211 47.5248 142.772 47.5248C143.332 47.5248 143.805 47.3214 144.19 46.9145C144.586 46.5076 144.784 45.9523 144.784 45.2485ZM155.253 40.5475C156.331 40.5475 157.189 40.8994 157.827 41.6032C158.475 42.2959 158.8 43.2526 158.8 44.4733V49.8506H155.996V44.8526C155.996 44.2368 155.836 43.7585 155.517 43.4176C155.198 43.0767 154.77 42.9063 154.231 42.9063C153.692 42.9063 153.263 43.0767 152.944 43.4176C152.625 43.7585 152.466 44.2368 152.466 44.8526V49.8506H149.645V40.6465H152.466V41.8671C152.752 41.4602 153.137 41.1413 153.62 40.9104C154.104 40.6685 154.649 40.5475 155.253 40.5475Z" fill="white"/>
</g>
<defs>
<filter id="filter0_d_57_695" x="0.257812" y="0.350586" width="261" height="98" filterUnits="userSpaceOnUse" color-interpolation-filters="sRGB">
<feFlood flood-opacity="0" result="BackgroundImageFix"/>
<feColorMatrix in="SourceAlpha" type="matrix" values="0 0 0 0 0 0 0 0 0 0 0 0 0 0 0 0 0 0 127 0" result="hardAlpha"/>
<feOffset dx="4" dy="5"/>
<feGaussianBlur stdDeviation="15"/>
<feColorMatrix type="matrix" values="0 0 0 0 0 0 0 0 0 0 0 0 0 0 0 0 0 0 0.15 0"/>
<feBlend mode="normal" in2="BackgroundImageFix" result="effect1_dropShadow_57_695"/>
<feBlend mode="normal" in="SourceGraphic" in2="effect1_dropShadow_57_695" result="shape"/>
</filter>
</defs>
</svg>
